<svg xmlns="http://www.w3.org/2000/svg" viewBox="0 0 400 300">
  <defs>
    <clipPath id="c">
      <ellipse cx="200" cy="148" rx="186" ry="132"/>
    </clipPath>
  </defs>
  <!-- No white fill — works on any background (dark or light) -->
  <ellipse cx="200" cy="148" rx="186" ry="132" fill="none" stroke="#0C3680" stroke-width="12"/>
  <path d="M14 212 Q72 158 136 192 Q170 212 200 182 Q230 152 266 178 Q310 208 386 196 L386 280 H14 Z" fill="#0C3680" clip-path="url(#c)"/>
  <!-- "Sal Vita" as vector paths — no font dependency -->
  <path fill="#0C3680" d="M48.78 161.25Q48.78 156.58 50.4 154.12Q52.01 151.65 55.16 151.65Q57.45 151.65 58.9 152.84Q60.34 154.03 60.34 155.9Q60.34 157.6 60.09 158.88Q60.09 159.22 59.96 160.06Q59.83 160.91 59.83 161.85Q59.83 165.68 63.7 167.54Q67.57 169.41 74.54 169.41Q81.76 169.41 85.84 166.82Q89.92 164.23 89.92 159.56Q89.92 156.66 88.05 154.58Q86.18 152.5 83.38 151.1Q80.57 149.69 75.47 147.66Q68.93 145.1 64.81 142.81Q60.68 140.51 57.75 136.56Q54.82 132.61 54.82 126.75Q54.82 120.62 58.09 115.86Q61.36 111.1 67.53 108.47Q73.69 105.83 82.02 105.83Q88.22 105.83 93.41 107.66Q98.59 109.49 101.7 113.23Q104.8 116.97 104.8 122.41Q104.8 127.76 103.18 130.49Q101.57 133.2 98.42 133.2Q96.21 133.2 94.73 131.84Q93.24 130.49 93.24 128.62Q93.24 127.0 93.49 125.64Q93.75 123.09 93.75 122.41Q93.75 118.84 90.26 116.97Q86.78 115.1 81.59 115.1Q74.28 115.1 70.42 117.78Q66.55 120.45 66.55 125.3Q66.55 128.53 68.55 130.82Q70.54 133.12 73.52 134.65Q76.49 136.18 81.85 138.31Q88.31 140.94 92.22 143.06Q96.13 145.19 98.89 148.84Q101.65 152.5 101.65 157.85Q101.65 167.88 94.05 173.28Q86.44 178.68 73.69 178.68Q62.38 178.68 55.58 174.39Q48.78 170.09 48.78 161.25Z M107.77 164.57Q107.77 157.77 110.92 151.69Q114.06 145.62 119.29 141.92Q124.52 138.22 130.38 138.22Q132.25 138.22 132.89 138.94Q133.53 139.66 133.95 141.53Q135.74 141.19 137.69 141.19Q141.86 141.19 141.86 144.17Q141.86 145.95 140.58 152.67Q138.63 162.44 138.63 166.27Q138.63 167.54 139.27 168.31Q139.9 169.07 140.92 169.07Q142.54 169.07 144.83 166.99Q147.13 164.91 151.04 160.24Q152.06 159.04 153.33 159.04Q154.44 159.04 155.08 160.06Q155.71 161.09 155.71 162.87Q155.71 166.27 154.1 168.14Q150.61 172.47 146.7 175.45Q142.79 178.43 139.14 178.43Q136.33 178.43 134.0 176.51Q131.66 174.6 130.47 171.28Q126.05 178.43 119.33 178.43Q114.06 178.43 110.92 174.6Q107.77 170.78 107.77 164.57ZM128.43 161.76 131.57 146.12Q128.0 146.21 124.99 148.8Q121.97 151.4 120.18 155.65Q118.4 159.9 118.4 164.66Q118.4 167.29 119.46 168.56Q120.52 169.84 122.39 169.84Q124.26 169.84 125.96 167.63Q127.66 165.42 128.43 161.76Z M183.43 162.87Q183.43 166.27 181.81 168.14Q178.16 172.65 173.86 175.53Q169.57 178.43 164.13 178.43Q156.65 178.43 153.04 171.62Q149.43 164.82 149.43 154.03Q149.43 143.66 152.1 130.4Q154.78 117.14 160.01 107.62Q165.24 98.1 172.46 98.1Q176.54 98.1 178.88 101.88Q181.22 105.66 181.22 112.72Q181.22 122.83 175.61 136.18Q170.0 149.53 160.39 162.62Q160.99 166.1 162.34 167.59Q163.71 169.07 165.91 169.07Q169.4 169.07 172.03 167.08Q174.67 165.08 178.75 160.24Q179.77 159.04 181.05 159.04Q182.15 159.04 182.79 160.06Q183.43 161.09 183.43 162.87ZM159.8 151.14Q165.83 141.19 169.4 131.21Q172.97 121.22 172.97 112.97Q172.97 106.52 170.59 106.52Q168.63 106.52 166.17 113.57Q163.71 120.62 161.84 131.08Q159.97 141.53 159.8 151.14Z M272.17 144.34Q272.17 146.55 270.85 148.25Q269.53 149.95 266.73 150.03Q259.93 150.2 254.66 149.01Q248.62 161.68 240.08 170.05Q231.54 178.43 222.95 178.43Q214.11 178.43 209.78 168.14Q205.44 157.85 205.44 140.34Q205.44 125.38 207.57 113.48Q208.33 109.06 209.73 107.49Q211.14 105.92 214.54 105.92Q220.15 105.92 220.15 110.77Q220.15 111.27 219.98 112.63Q217.43 127.94 217.43 140.34Q217.43 153.35 219.59 160.11Q221.76 166.87 226.1 166.87Q230.52 166.87 235.7 160.75Q240.89 154.62 245.22 145.36Q240.04 142.13 237.4 136.99Q234.77 131.84 234.77 125.13Q234.77 118.41 236.85 113.78Q238.93 109.15 242.54 106.85Q246.16 104.56 250.58 104.56Q256.01 104.56 259.2 108.47Q262.39 112.38 262.39 119.18Q262.39 128.95 258.14 140.51Q262.65 141.28 268.43 141.28Q270.38 141.28 271.27 142.13Q272.17 142.98 272.17 144.34ZM248.71 136.86Q252.02 127.34 252.02 121.13Q252.02 117.56 251.09 115.91Q250.15 114.25 248.54 114.25Q246.24 114.25 244.8 116.93Q243.35 119.6 243.35 124.53Q243.35 132.87 248.71 136.86Z M267.92 126.49Q267.92 123.51 270.25 121.52Q272.59 119.52 276.08 119.52Q279.22 119.52 281.18 121.05Q283.13 122.58 283.13 125.38Q283.13 128.78 280.92 130.78Q278.71 132.78 275.06 132.78Q271.49 132.78 269.7 131.12Q267.92 129.47 267.92 126.49ZM263.84 164.15Q263.84 160.32 264.81 154.33Q265.79 148.34 267.32 143.15Q268.09 140.43 269.36 139.41Q270.64 138.39 273.44 138.39Q277.78 138.39 277.78 141.28Q277.78 143.41 276.16 151.14Q274.12 160.49 274.12 163.81Q274.12 166.35 274.8 167.72Q275.48 169.07 277.1 169.07Q278.63 169.07 280.92 166.95Q283.22 164.82 287.04 160.24Q288.06 159.04 289.34 159.04Q290.44 159.04 291.08 160.06Q291.72 161.09 291.72 162.87Q291.72 166.27 290.1 168.14Q281.69 178.43 274.38 178.43Q268.85 178.43 266.34 174.51Q263.84 170.6 263.84 164.15Z M325.12 162.87Q325.12 166.27 323.51 168.14Q319.85 172.65 315.52 175.53Q311.18 178.43 305.57 178.43Q288.23 178.43 288.23 154.03Q288.23 150.29 288.49 146.47Q282.62 146.47 281.73 145.53Q280.84 144.59 280.84 142.56Q280.84 137.79 284.66 137.79Q290.95 128.44 293.93 120.71Q296.9 112.97 301.11 108.38Q305.32 103.8 310.16 103.8Q313.73 103.8 315.77 106.94Q317.81 110.08 317.81 114.84Q317.81 128.02 306.76 137.79Q317.64 137.79 318.24 138.39Q318.83 138.99 318.83 140.6Q318.83 146.47 309.23 146.47Q298.69 150.72 298.69 153.09Q298.69 161.94 300.77 165.5Q302.85 169.07 307.36 169.07Q311.01 169.07 313.82 166.87Q316.62 164.66 320.45 160.24Q321.47 159.04 322.74 159.04Q323.85 159.04 324.48 160.06Q325.12 161.09 325.12 162.87ZM299.71 136.52Q304.72 132.19 307.23 126.79Q309.74 121.39 309.74 116.97Q309.74 111.95 307.87 111.95Q306.59 111.95 305.02 115.14Q303.45 118.33 302.04 123.98Q300.64 129.63 299.71 136.52Z M317.13 164.57Q317.13 157.77 320.28 151.69Q323.42 145.62 328.65 141.92Q333.88 138.22 339.74 138.22Q341.61 138.22 342.25 138.94Q342.89 139.66 343.31 141.53Q345.1 141.19 347.05 141.19Q351.22 141.19 351.22 144.17Q351.22 145.95 349.94 152.67Q347.99 162.44 347.99 166.27Q347.99 167.54 348.62 168.31Q349.26 169.07 350.28 169.07Q351.9 169.07 354.19 166.99Q356.49 164.91 360.4 160.24Q361.42 159.04 362.69 159.04Q363.8 159.04 364.43 160.06Q365.07 161.09 365.07 162.87Q365.07 166.27 363.46 168.14Q359.97 172.47 356.06 175.45Q352.15 178.43 348.5 178.43Q345.69 178.43 343.35 176.51Q341.02 174.6 339.83 171.28Q335.41 178.43 328.69 178.43Q323.42 178.43 320.28 174.6Q317.13 170.78 317.13 164.57ZM337.79 161.76 340.93 146.12Q337.36 146.21 334.34 148.8Q331.33 151.4 329.54 155.65Q327.76 159.9 327.76 164.66Q327.76 167.29 328.82 168.56Q329.88 169.84 331.75 169.84Q333.62 169.84 335.32 167.63Q337.02 165.42 337.79 161.76Z"/>
</svg>
